<svg width="81" height="22" viewBox="0 0 81 22" fill="none" xmlns="http://www.w3.org/2000/svg">
<path d="M2.53214 20.4551L10.9567 3.56262C10.9567 3.56262 3.58519 6.83213 2.00558 10.6466C0.425966 14.461 0.926841 17.9697 2.0056 20.4551" stroke="#90CB6C" stroke-linecap="round" stroke-linejoin="round"/>
<path d="M1.47913 21C1.47913 21 27.806 -8.42558 19.3814 4.10754C10.9568 16.6407 20.2394 6.463 15.5493 13.7315C10.8593 21 1.47913 21 1.47913 21Z" stroke="#90CB6C" stroke-linejoin="round"/>
<path d="M26.9264 8.8C28.2811 8.8 29.2837 9.024 29.9344 9.472C30.5957 9.90933 30.9264 10.688 30.9264 11.808C30.9264 12.928 30.6011 13.8187 29.9504 14.48C29.2997 15.1307 28.2491 15.456 26.7984 15.456H25.4544L25.4064 18.928L26.6544 19.04C26.6544 19.3387 26.5637 19.6587 26.3824 20H22.7824L22.7344 19.456C23.1824 19.2853 23.6411 19.1573 24.1104 19.072C24.0464 14.912 23.9931 11.8187 23.9504 9.792C23.6624 9.73867 23.1931 9.61067 22.5424 9.408L22.6224 8.8H26.9264ZM26.6384 14.416C27.5557 14.4053 28.2544 14.176 28.7344 13.728C29.2144 13.2693 29.4544 12.6667 29.4544 11.92C29.4544 11.1733 29.2197 10.656 28.7504 10.368C28.2811 10.0693 27.5291 9.92 26.4944 9.92C26.3024 9.92 25.9771 9.92533 25.5184 9.936C25.5184 9.94667 25.5024 11.4453 25.4704 14.432L26.6384 14.416ZM33.9855 8.112C34.3162 8.112 34.5508 8.12267 34.6895 8.144C34.6895 8.51733 34.6202 8.944 34.4815 9.424C34.3855 15.7173 34.3375 18.88 34.3375 18.912L35.6815 19.04C35.6815 19.3387 35.5908 19.6587 35.4095 20H31.7295L31.6815 19.44C32.1722 19.2693 32.6522 19.1413 33.1215 19.056L32.9615 9.376C32.3748 9.344 31.9055 9.28 31.5535 9.184L31.6175 8.352C32.1615 8.192 32.9508 8.112 33.9855 8.112ZM42.9763 14.768L42.8963 18.896C43.3549 18.928 43.8136 19.0027 44.2723 19.12L44.2403 19.68C44.0696 19.7653 43.7603 19.8613 43.3123 19.968C42.8749 20.064 42.4429 20.112 42.0163 20.112C41.8243 19.728 41.7176 19.36 41.6963 19.008C40.4803 19.808 39.6269 20.208 39.1363 20.208C38.3789 20.208 37.7709 20.0053 37.3123 19.6C36.8536 19.1947 36.6243 18.6293 36.6243 17.904C36.6243 16.2293 37.6483 15.3653 39.6963 15.312C40.8909 15.28 41.4936 15.264 41.5043 15.264L41.4883 14.72C41.4669 13.984 41.3283 13.456 41.0723 13.136C40.8163 12.8053 40.3576 12.64 39.6963 12.64C39.4189 12.64 39.1203 12.704 38.8003 12.832L38.4163 14.432C38.3629 14.4427 38.2723 14.448 38.1443 14.448L37.4883 14.4C37.3176 13.9413 37.2269 13.3067 37.2163 12.496C37.4189 12.3893 37.8829 12.2293 38.6083 12.016C39.3336 11.792 39.7976 11.68 40.0003 11.68C41.0883 11.68 41.8563 11.92 42.3043 12.4C42.7523 12.88 42.9763 13.6693 42.9763 14.768ZM39.4883 19.12C39.7976 19.12 40.5123 18.7733 41.6323 18.08L41.5523 16.08C40.8269 16.144 40.2189 16.2027 39.7283 16.256C39.2376 16.3093 38.8429 16.4533 38.5443 16.688C38.2456 16.912 38.0963 17.2693 38.0963 17.76C38.0963 18.6667 38.5603 19.12 39.4883 19.12ZM50.1613 11.68C51.1853 11.68 51.9266 11.936 52.3853 12.448C52.8439 12.9493 53.0733 13.7173 53.0733 14.752C53.0733 15.0507 53.0306 16.4373 52.9453 18.912L54.2893 19.04C54.2893 19.3387 54.1986 19.6587 54.0173 20H50.3373L50.2893 19.44C50.7799 19.2693 51.2599 19.1413 51.7293 19.056C51.6653 16.2613 51.6066 14.7093 51.5533 14.4C51.5106 14.08 51.4359 13.8027 51.3293 13.568C51.2226 13.3333 51.0626 13.168 50.8493 13.072C50.6359 12.976 50.3533 12.928 50.0013 12.928C49.2973 12.928 48.6146 13.0987 47.9533 13.44C47.8893 15.872 47.8466 17.696 47.8253 18.912L49.1693 19.04C49.1693 19.3387 49.0786 19.6587 48.8973 20H45.2173L45.1693 19.44C45.6599 19.2693 46.1399 19.1413 46.6093 19.056C46.5453 16.3467 46.4919 14.3413 46.4493 13.04C45.8626 13.008 45.3933 12.944 45.0413 12.848L45.1053 12.016C45.6813 11.856 46.5186 11.776 47.6173 11.776C47.7453 11.968 47.8413 12.2453 47.9053 12.608C48.3639 12.3627 48.8226 12.1493 49.2813 11.968C49.7506 11.776 50.0439 11.68 50.1613 11.68ZM56.2126 19.008L56.0846 12.976H54.8526L54.8046 12.416C54.9113 12.3413 55.2206 12.2027 55.7326 12L57.0446 9.952C57.258 9.97333 57.4233 10.0267 57.5406 10.112L57.5246 11.872C58.3246 11.872 58.9806 11.9253 59.4926 12.032C59.4926 12.32 59.402 12.6347 59.2206 12.976H57.4926C57.4713 14.256 57.45 16.1973 57.4286 18.8C58.026 18.832 58.6233 18.9387 59.2206 19.12L59.2046 19.68C59.0553 19.776 58.6713 19.888 58.0526 20.016C57.4446 20.144 56.9433 20.208 56.5486 20.208C56.4953 20.1227 56.426 19.9413 56.3406 19.664C56.2553 19.376 56.2126 19.1573 56.2126 19.008ZM61.9191 18.976C62.2925 19.136 62.7458 19.216 63.2791 19.216C63.8231 19.216 64.2498 19.1147 64.5591 18.912C64.8685 18.7093 65.0231 18.432 65.0231 18.08C65.0231 17.728 64.8791 17.4347 64.5911 17.2C64.3031 16.9653 63.9511 16.7573 63.5351 16.576C63.1191 16.3947 62.7031 16.2027 62.2871 16C61.8711 15.7973 61.5191 15.5307 61.2311 15.2C60.9431 14.8693 60.7991 14.4853 60.7991 14.048C60.7991 13.312 61.0445 12.736 61.5351 12.32C62.0258 11.8933 62.7031 11.68 63.5671 11.68C64.4418 11.68 65.2631 11.8773 66.0311 12.272C66.0418 12.3787 66.0471 12.6667 66.0471 13.136C66.0471 13.5947 65.9991 13.9893 65.9031 14.32C65.6471 14.4053 65.3431 14.448 64.9911 14.448L64.4631 12.816C64.2285 12.6987 63.9085 12.64 63.5031 12.64C63.1085 12.64 62.7938 12.7467 62.5591 12.96C62.3245 13.1627 62.2071 13.424 62.2071 13.744C62.2071 14.0533 62.3511 14.3253 62.6391 14.56C62.9378 14.7947 63.2951 15.008 63.7111 15.2C64.1271 15.3813 64.5431 15.5787 64.9591 15.792C65.3751 15.9947 65.7271 16.2667 66.0151 16.608C66.3138 16.9387 66.4631 17.3227 66.4631 17.76C66.4631 18.528 66.1645 19.1307 65.5671 19.568C64.9805 19.9947 64.2551 20.208 63.3911 20.208C62.9218 20.208 62.4205 20.1333 61.8871 19.984C61.3538 19.824 60.9058 19.6213 60.5431 19.376C60.5431 18.6613 60.6071 18.0267 60.7351 17.472C60.9805 17.4293 61.3111 17.408 61.7271 17.408L61.9191 18.976Z" fill="black"/>
</svg>
